<svg xmlns="http://www.w3.org/2000/svg" xmlns:xlink="http://www.w3.org/1999/xlink" width="40" height="40" viewBox="0 0 40 40">
  <defs>
    <clipPath id="clip-Frontend">
      <rect width="40" height="40"/>
    </clipPath>
  </defs>
  <g id="Frontend" clip-path="url(#clip-Frontend)">
    <g id="Group_4" data-name="Group 4" transform="translate(-1583.032 -1202.313) rotate(45)">
      <path id="Path_4264" d="M-211.425-45.7a9.51,9.51,0,0,1,9.7,9.3v.262a9.222,9.222,0,0,1-2.883,6.684,9.518,9.518,0,0,1-6.815,2.883,9.141,9.141,0,0,1-6.028-2.1,9.07,9.07,0,0,1-3.538-7.994,9.693,9.693,0,0,1,2.883-6.291A9.1,9.1,0,0,1-211.425-45.7Zm0,3.932a4.47,4.47,0,0,0-3.669,1.7,5.7,5.7,0,0,0,0,7.863,4.875,4.875,0,0,0,7.077.262l.262-.262a5.7,5.7,0,0,0,0-7.863A4.876,4.876,0,0,0-211.425-41.768Z" transform="translate(2209.034 -242.91)" fill="#ff9333"/>
      <path id="Path_4265" d="M-211.425-30.2a9.51,9.51,0,0,1,9.7,9.3v.262a9.222,9.222,0,0,1-2.883,6.684,9.518,9.518,0,0,1-6.815,2.883,9.141,9.141,0,0,1-6.028-2.1,9.07,9.07,0,0,1-3.538-7.994,9.693,9.693,0,0,1,2.883-6.291A9.1,9.1,0,0,1-211.425-30.2Zm0,3.932a4.469,4.469,0,0,0-3.669,1.7,5.7,5.7,0,0,0,0,7.863,4.875,4.875,0,0,0,7.077.262l.262-.262a5.7,5.7,0,0,0,0-7.863A4.876,4.876,0,0,0-211.425-26.268Z" transform="translate(2209.034 -238.097)" fill="#ff9333"/>
    </g>
  </g>
</svg>
